# xmcd CD database file generated by Grip 3.0.0
# 
# Track frame offsets:
#       150
#       17303
#       33673
#       53205
#       76016
#       91393
#       105973
#       122939
#       140907
#       157571
#       172472
#       192446
#       210991
#       228114
#       244381
#       264538
# 
# Disc length: 3655 seconds
# 
# Revision: 3
# Processed by: cddbd v1.4PL0 Copyright (c) Steve Scherf et al.
# Submitted via: Grip 3.0.0
# 
DISCID=cf0e4510
DTITLE=The Blues Band - Scratchin' on my screen
DYEAR=2000
DGENRE=Blues
TTITLE0=Mean old Frisco
TTITLE1=Crossroads Blues
TTITLE2=Drop down Mama
TTITLE3=Still a fool
TTITLE4=Jesus on the mainline
TTITLE5=Don't sell it don't give it away
TTITLE6=Alberta
TTITLE7=I can't be satisfied
TTITLE8=Georgia on my mind
TTITLE9=New stockyard blues
TTITLE10=Don't let them grind you down
TTITLE11=I'm your man
TTITLE12=Sus blues
TTITLE13=I'm your king bee
TTITLE14=Lonely avenue
TTITLE15=Captain Spalding's rag
EXTD=
EXTT0=
EXTT1=
EXTT2=
EXTT3=
EXTT4=
EXTT5=
EXTT6=
EXTT7=
EXTT8=
EXTT9=
EXTT10=
EXTT11=
EXTT12=
EXTT13=
EXTT14=
EXTT15=
PLAYORDER=
